<svg xmlns="http://www.w3.org/2000/svg" shape-rendering="geometricPrecision" text-rendering="geometricPrecision" image-rendering="optimizeQuality" fill-rule="evenodd" clip-rule="evenodd" viewBox="0 0 512 406.6"><path d="M334.09 1.64a202.498 202.498 0 01135.18 77.03c68.82 88.59 52.8 216.19-35.78 285.02-.08.05-.15.12-.23.17-88.56 68.82-216.15 52.82-284.97-35.74A205.172 205.172 0 01125.3 291c12.77-.37 25.45-2.19 37.81-5.42 4.02 7.08 8.55 13.87 13.54 20.3 56.7 72.79 161.68 85.84 234.46 29.15 72.8-56.7 85.85-161.67 29.15-234.47-40.27-51.71-107.08-75.09-170.82-59.79a171.348 171.348 0 00-21.88-31.3c2.46-.79 4.96-1.5 7.46-2.21 25.76-7.11 52.69-9.02 79.2-5.62h-.13z"/><path d="M297.62 104.51c1.23-9.87 10.23-16.87 20.1-15.64.01.01.02.01.03.01 9.82 1.32 16.72 10.31 15.47 20.13l-11.72 94.08 65.07 50.56c7.86 6.09 9.3 17.4 3.21 25.26a18.029 18.029 0 01-11.96 6.83c-4.73.63-9.51-.68-13.26-3.62l-72.82-56.61c-2.51-1.82-4.5-4.26-5.79-7.08a18.336 18.336 0 01-1.46-9.67l13.13-104.21v-.04z"/><path fill="red" d="M0 129.16v-15.4C3.96 50.8 56.26.95 120.21.93h.05c66.57-.03 120.56 53.92 120.59 120.5.02 66.58-53.93 120.57-120.51 120.59C56.33 242.04 3.97 192.18 0 129.16z"/><path fill="#fff" fill-rule="nonzero" d="M55.91 101.95l-3.22-20.7c10.41-3.52 20.77-5.29 31.08-5.29 4.13 0 7.58.14 10.34.42 2.77.28 5.64.97 8.61 2.09 2.97 1.11 5.32 2.64 7.06 4.58 3.96 4.45 5.94 11.26 5.94 20.43s-2.31 15.93-6.93 20.29c-4.63 4.35-14.37 9.35-29.23 15v3.9h34.92v22.23H50.96v-17.37c0-5.19.87-10.15 2.6-14.87 1.07-2.69 3.67-5.93 7.8-9.73 2.23-2.13 5.22-4.17 8.98-6.11 3.76-1.95 7.31-3.78 10.65-5.49 3.34-1.71 6.05-3.13 8.11-4.24v-7.5c-3.71-.46-7.14-.7-10.28-.7-7.59 0-15.23 1.02-22.91 3.06zm86.3-23.83c4.29-1.43 9.25-2.16 14.86-2.16 5.62 0 10.57.72 14.86 2.16 4.29 1.43 7.93 4.1 10.9 7.99 2.97 3.89 4.46 8.89 4.46 15.01 0 8.8-2.77 15.47-8.3 20.01v.97c3.14 1.67 5.74 4.26 7.8 7.78 2.06 3.52 3.1 7.27 3.1 11.26 0 17.23-10.94 25.84-32.82 25.84-21.87 0-32.81-8.61-32.81-25.84 0-3.99 1.03-7.74 3.09-11.26 2.07-3.52 4.67-6.11 7.8-7.78v-.97c-5.53-4.36-8.29-11.03-8.29-20.01 0-6.12 1.49-11.12 4.46-15.01 2.97-3.89 6.6-6.56 10.89-7.99zm21.05 53.85c-4.36.21-12.38-1.59-12.38 1.94V146h5.08c2.72 0 4.63-.36 5.69-1.04 1.07-.69 1.61-2.29 1.61-4.8v-8.19zm-12.38-20.35c3.3-.32 12.38.69 12.38-2.72V97.64h-5.07c-2.73 0-4.63.35-5.7 1.04-1.07.7-1.61 2.31-1.61 4.8v8.14z"/></svg>