<svg width="1418" height="792" viewBox="0 0 1418 792" fill="none" xmlns="http://www.w3.org/2000/svg">
<mask id="mask0_2010_9" style="mask-type:luminance" maskUnits="userSpaceOnUse" x="0" y="0" width="1418" height="792">
<path d="M0 0H1417.52V791.582H0V0Z" fill="white"/>
</mask>
<g mask="url(#mask0_2010_9)">
<path d="M1416.98 1.23422L1396.98 13.6737C1347.24 44.6751 1301.54 80.8082 1259.9 122.057C1218.28 163.322 1181.72 208.679 1150.27 258.128L878.772 685.132C873.625 693.219 868.006 700.949 861.883 708.338C855.777 715.727 849.216 722.694 842.233 729.255C835.234 735.816 827.861 741.905 820.099 747.541C812.336 753.159 804.265 758.291 795.853 762.903C787.457 767.515 778.802 771.591 769.886 775.115C760.971 778.639 751.86 781.595 742.587 783.982C733.298 786.353 723.896 788.139 714.379 789.341C704.879 790.543 695.33 791.144 685.733 791.144H570.448L963.494 162.363C971.159 150.086 979.572 138.345 988.731 127.14C997.89 115.918 1007.71 105.346 1018.21 95.3751C1028.7 85.404 1039.79 76.1474 1051.45 67.5892C1063.12 59.0309 1075.29 51.2359 1087.95 44.2204C1100.61 37.2049 1113.65 31.0014 1127.09 25.6423C1140.54 20.2833 1154.26 15.7849 1168.28 12.1635C1182.29 8.5258 1196.47 5.79755 1210.82 3.97871C1225.18 2.14364 1239.6 1.23422 1254.07 1.23422H1416.98ZM1009.18 13.6737L1029.26 1.23422H866.365C851.896 1.23422 837.475 2.14364 823.119 3.97871C808.764 5.79755 794.586 8.52579 780.572 12.1472C766.557 15.7687 752.835 20.267 739.388 25.6261C725.958 30.9851 712.901 37.1724 700.251 44.2042C687.584 51.2197 675.42 58.9984 663.744 67.5567C652.084 76.1149 640.993 85.3715 630.502 95.3426C620.011 105.297 610.17 115.886 601.027 127.091C591.868 138.296 583.456 150.038 575.774 162.315L301.114 601.579L230.521 488.454L422.327 170.402C482.251 71.0807 616.195 1.23422 616.195 1.23422C415.685 1.23422 299.913 -23.0927 208.841 143.883L0.389648 525.221L179.431 791.144H298.029C307.61 791.144 317.159 790.543 326.675 789.341C336.176 788.139 345.578 786.353 354.867 783.982C364.156 781.595 373.25 778.639 382.166 775.115C391.082 771.591 399.737 767.515 408.149 762.903C416.545 758.291 424.633 753.159 432.395 747.541C440.141 741.905 447.514 735.816 454.513 729.255C461.513 722.694 468.057 715.727 474.179 708.338C480.286 700.949 485.921 693.219 491.069 685.132L762.562 258.161C794.002 208.695 830.525 163.338 872.147 122.073C913.769 80.8244 959.451 44.6751 1009.18 13.6737Z" fill="#8C52FF"/>
</g>
</svg>
